<svg width="20" height="20" viewBox="0 0 20 20" fill="none" xmlns="http://www.w3.org/2000/svg">
<path d="M19.1663 18.9584H0.833008C0.491341 18.9584 0.208008 18.675 0.208008 18.3334C0.208008 17.9917 0.491341 17.7084 0.833008 17.7084H19.1663C19.508 17.7084 19.7913 17.9917 19.7913 18.3334C19.7913 18.675 19.508 18.9584 19.1663 18.9584Z" fill="#000960"/>
<path d="M16.4834 18.9667C16.1417 18.9667 15.8584 18.6834 15.8584 18.3417V14.625C15.8584 14.2833 16.1417 14 16.4834 14C16.8251 14 17.1084 14.2833 17.1084 14.625V18.3417C17.1084 18.6834 16.8334 18.9667 16.4834 18.9667Z" fill="#000960"/>
<path d="M16.5003 15.25C15.142 15.25 14.042 14.15 14.042 12.7916V10.9C14.042 9.54166 15.142 8.44165 16.5003 8.44165C17.8587 8.44165 18.9587 9.54166 18.9587 10.9V12.7916C18.9587 14.15 17.8587 15.25 16.5003 15.25ZM16.5003 9.69999C15.8337 9.69999 15.292 10.2417 15.292 10.9083V12.8C15.292 13.4666 15.8337 14.0083 16.5003 14.0083C17.167 14.0083 17.7087 13.4666 17.7087 12.8V10.9083C17.7087 10.2417 17.167 9.69999 16.5003 9.69999Z" fill="#000960"/>
<path d="M11.9162 18.9583C11.5745 18.9583 11.2912 18.675 11.2912 18.3333V5.02498C11.2912 3.69998 10.7329 3.1333 9.43286 3.1333H4.24121C2.93288 3.1333 2.36621 3.69998 2.36621 5.02498V18.3333C2.36621 18.675 2.08288 18.9583 1.74121 18.9583C1.39954 18.9583 1.11621 18.675 1.11621 18.3333V5.02498C1.11621 2.99998 2.22454 1.8833 4.24121 1.8833H9.43286C11.4412 1.8833 12.5412 2.99998 12.5412 5.02498V18.3333C12.5412 18.675 12.2578 18.9583 11.9162 18.9583Z" fill="#000960"/>
<path d="M8.95802 7.5H4.83301C4.49134 7.5 4.20801 7.21667 4.20801 6.875C4.20801 6.53333 4.49134 6.25 4.83301 6.25H8.95802C9.29968 6.25 9.58302 6.53333 9.58302 6.875C9.58302 7.21667 9.29968 7.5 8.95802 7.5Z" fill="#000960"/>
<path d="M8.95802 10.625H4.83301C4.49134 10.625 4.20801 10.3417 4.20801 10C4.20801 9.65833 4.49134 9.375 4.83301 9.375H8.95802C9.29968 9.375 9.58302 9.65833 9.58302 10C9.58302 10.3417 9.29968 10.625 8.95802 10.625Z" fill="#000960"/>
<path d="M6.875 18.9584C6.53333 18.9584 6.25 18.675 6.25 18.3334V15.2084C6.25 14.8667 6.53333 14.5834 6.875 14.5834C7.21667 14.5834 7.5 14.8667 7.5 15.2084V18.3334C7.5 18.675 7.21667 18.9584 6.875 18.9584Z" fill="#000960"/>
</svg>
