<svg width="90" height="90" viewBox="0 0 90 90" fill="none" xmlns="http://www.w3.org/2000/svg">
<path d="M48.75 85.3125H18.75C9.675 85.3125 4.6875 80.325 4.6875 71.25V41.25C4.6875 32.175 9.675 27.1875 18.75 27.1875H37.5C39.0375 27.1875 40.3125 28.4625 40.3125 30V71.25C40.3125 77.175 42.825 79.6875 48.75 79.6875C50.2875 79.6875 51.5625 80.9625 51.5625 82.5C51.5625 84.0375 50.2875 85.3125 48.75 85.3125ZM18.75 32.8125C12.825 32.8125 10.3125 35.325 10.3125 41.25V71.25C10.3125 77.175 12.825 79.6875 18.75 79.6875H36.75C35.4 77.475 34.6875 74.6625 34.6875 71.25V32.8125H18.75Z" fill="white"/>
<path d="M37.5 32.8125H18.75C17.2125 32.8125 15.9375 31.5375 15.9375 30V22.5C15.9375 16.8 20.55 12.1875 26.25 12.1875H37.9124C38.7749 12.1875 39.6 12.5999 40.125 13.2749C40.65 13.9874 40.8375 14.8875 40.6124 15.7125C40.3874 16.5375 40.3125 17.475 40.3125 18.75V30C40.3125 31.5375 39.0375 32.8125 37.5 32.8125ZM21.5625 27.1875H34.6875V18.75C34.6875 18.4125 34.6875 18.1125 34.6875 17.8125H26.25C23.6625 17.8125 21.5625 19.9125 21.5625 22.5V27.1875Z" fill="white"/>
<path d="M52.5 51.5625C50.9625 51.5625 49.6875 50.2875 49.6875 48.75V30C49.6875 28.4625 50.9625 27.1875 52.5 27.1875C54.0375 27.1875 55.3125 28.4625 55.3125 30V48.75C55.3125 50.2875 54.0375 51.5625 52.5 51.5625Z" fill="white"/>
<path d="M67.5 51.5625C65.9625 51.5625 64.6875 50.2875 64.6875 48.75V30C64.6875 28.4625 65.9625 27.1875 67.5 27.1875C69.0375 27.1875 70.3125 28.4625 70.3125 30V48.75C70.3125 50.2875 69.0375 51.5625 67.5 51.5625Z" fill="white"/>
<path d="M67.5 85.3125H52.5C50.9625 85.3125 49.6875 84.0375 49.6875 82.5V67.5C49.6875 63.9 52.65 60.9375 56.25 60.9375H63.75C67.35 60.9375 70.3125 63.9 70.3125 67.5V82.5C70.3125 84.0375 69.0375 85.3125 67.5 85.3125ZM55.3125 79.6875H64.6875V67.5C64.6875 66.975 64.275 66.5625 63.75 66.5625H56.25C55.725 66.5625 55.3125 66.975 55.3125 67.5V79.6875Z" fill="white"/>
<path d="M22.5 66.5625C20.9625 66.5625 19.6875 65.2875 19.6875 63.75V48.75C19.6875 47.2125 20.9625 45.9375 22.5 45.9375C24.0375 45.9375 25.3125 47.2125 25.3125 48.75V63.75C25.3125 65.2875 24.0375 66.5625 22.5 66.5625Z" fill="white"/>
<path d="M71.25 85.3125H48.75C39.675 85.3125 34.6875 80.325 34.6875 71.25V18.75C34.6875 9.675 39.675 4.6875 48.75 4.6875H71.25C80.325 4.6875 85.3125 9.675 85.3125 18.75V71.25C85.3125 80.325 80.325 85.3125 71.25 85.3125ZM48.75 10.3125C42.825 10.3125 40.3125 12.825 40.3125 18.75V71.25C40.3125 77.175 42.825 79.6875 48.75 79.6875H71.25C77.175 79.6875 79.6875 77.175 79.6875 71.25V18.75C79.6875 12.825 77.175 10.3125 71.25 10.3125H48.75Z" fill="white"/>
</svg>
