<svg width="147" height="40" viewBox="0 0 147 40" fill="none" xmlns="http://www.w3.org/2000/svg">
<path d="M18.2483 0L0 15.0914V39.1915H6.04427V18.1713L18.2483 8.27719L30.5679 18.1713V31.4918L22.4062 24.9856L14.591 31.2993V14.36L8.54668 19.1723V39.1915H14.6295L22.4062 32.7238L30.4909 39.1915H36.5351V15.0914L18.2483 0Z" fill="#E08A22"/>
<path d="M64.7162 27.3725C64.7162 27.7574 64.6777 28.1424 64.6392 28.5659C64.6007 28.9894 64.5622 29.4129 64.4852 29.8364H45.4284C45.6594 30.5293 45.9674 31.1838 46.3524 31.7998C46.7374 32.4158 47.2378 32.9548 47.8153 33.4167C48.3928 33.8787 49.0473 34.2252 49.7787 34.4947C50.5102 34.7642 51.3187 34.8797 52.2042 34.8797C53.2821 34.8797 54.3601 34.6872 55.438 34.3407C56.516 33.9942 57.4015 33.4552 58.1329 32.8393L61.9058 36.6121C60.2503 37.8441 58.6334 38.7295 57.055 39.23C55.4765 39.7305 53.7826 40 52.0502 40C50.2792 40 48.5853 39.6535 47.0453 38.999C45.5054 38.3445 44.1579 37.4591 43.003 36.3041C41.848 35.1877 40.9626 33.8402 40.3081 32.3388C39.6536 30.7988 39.3071 29.1819 39.3071 27.4495C39.3071 25.717 39.6536 24.1001 40.3081 22.5601C40.9626 21.0202 41.8865 19.7112 43.0415 18.5948C44.1964 17.4783 45.5439 16.5544 47.0838 15.8999C48.6238 15.2454 50.2792 14.8989 52.0502 14.8989C53.7441 14.8989 55.3225 15.2069 56.8625 15.8229C58.4024 16.4389 59.7499 17.2858 60.9433 18.4023C62.1368 19.5188 63.0607 20.8277 63.7537 22.3291C64.3697 23.8691 64.7162 25.5245 64.7162 27.3725ZM58.4794 25.0625C58.0174 23.5611 57.1705 22.3291 55.977 21.4052C54.7835 20.4812 53.4361 20.0192 51.8962 20.0192C50.3947 20.0192 49.0858 20.4812 47.8923 21.4052C46.6989 22.3291 45.8904 23.5611 45.4284 25.0625H58.4794Z" fill="#000960"/>
<path d="M84.8893 32.6853C84.8893 33.8787 84.6198 34.9182 84.0808 35.8421C83.5418 36.7661 82.8104 37.5361 81.9249 38.1521C81.0394 38.768 80.0385 39.23 78.9605 39.538C77.844 39.846 76.7661 40 75.6881 40C73.8787 40 72.1848 39.6535 70.6448 38.999C69.1049 38.3061 67.7574 37.2281 66.6025 35.7651L70.1828 32.1463C70.9143 33.0702 71.7228 33.7632 72.6467 34.2637C73.5707 34.7642 74.5717 35.0337 75.6496 35.0337C76.5736 35.0337 77.3821 34.8797 77.998 34.5332C78.614 34.1867 78.922 33.6862 78.922 32.9932C78.922 32.2618 78.4985 31.6843 77.6131 31.1838C76.7276 30.6833 75.4956 30.2214 73.9172 29.7594C72.9932 29.4899 72.0693 29.1434 71.1838 28.7199C70.2983 28.2964 69.5284 27.7574 68.8354 27.1415C68.1424 26.5255 67.6034 25.8325 67.1799 25.024C66.7565 24.2156 66.564 23.2916 66.564 22.2522C66.564 21.0972 66.8335 20.0577 67.3724 19.1338C67.9114 18.2098 68.6044 17.4398 69.4899 16.8239C70.3753 16.2079 71.3378 15.7459 72.4542 15.3994C73.5707 15.0529 74.6872 14.8989 75.8036 14.8989C79.461 14.8989 82.4254 16.2849 84.7353 19.0183L81.1934 22.5986C80.5004 21.7517 79.7305 21.0587 78.845 20.5582C77.9595 20.0577 76.9971 19.8267 75.9576 19.8267C75.6111 19.8267 75.2261 19.8652 74.8412 19.9807C74.4562 20.0962 74.0712 20.2117 73.7247 20.4042C73.3782 20.5967 73.1087 20.8277 72.8777 21.0972C72.6467 21.4052 72.5312 21.7132 72.5312 22.0597C72.5312 22.6756 72.9547 23.2531 73.8017 23.7151C74.6487 24.1771 75.8421 24.6391 77.4206 25.101C78.4215 25.409 79.384 25.794 80.308 26.256C81.2319 26.718 82.0019 27.257 82.6949 27.8729C83.3878 28.4889 83.9268 29.1819 84.3118 29.9904C84.6968 30.7988 84.8893 31.6843 84.8893 32.6853Z" fill="#000960"/>
<path d="M106.91 39.3455H100.982V38.0751C99.9421 38.8065 98.8257 39.2685 97.6707 39.5765C96.5157 39.846 95.2838 40 94.0518 40C92.8969 40 91.8574 39.846 90.9335 39.4995C90.0095 39.153 89.201 38.6525 88.508 37.9981C87.8151 37.3436 87.2761 36.5736 86.9296 35.6881C86.5446 34.8027 86.3906 33.8402 86.3906 32.7623C86.3906 31.4148 86.6986 30.2214 87.2761 29.2204C87.8536 28.2194 88.662 27.3725 89.7015 26.718C90.7025 26.025 91.8959 25.5245 93.2819 25.2165C94.6293 24.8701 96.0923 24.7161 97.6707 24.7161H101.097C101.097 23.3301 100.635 22.2137 99.7496 21.3667C98.8257 20.5582 97.5167 20.1347 95.8228 20.1347C95.0143 20.1347 94.1288 20.2887 93.2819 20.5967C92.3964 20.9047 91.5109 21.4437 90.6255 22.2522L87.1221 18.7103C88.3926 17.5168 89.8555 16.5544 91.5109 15.8999C93.1664 15.2454 94.8988 14.8989 96.6312 14.8989C98.2867 14.8989 99.7496 15.1684 101.059 15.6689C102.329 16.2079 103.407 16.8624 104.177 17.7093C105.216 18.7488 105.948 19.9422 106.371 21.2127C106.795 22.5216 107.026 24.1386 107.026 26.179V39.3455H106.91ZM100.943 33.4167V28.9894H98.2097C97.4012 28.9894 96.5927 29.0279 95.8613 29.1434C95.1298 29.2589 94.5138 29.4514 93.9748 29.6824C93.4359 29.9519 93.0124 30.2983 92.7044 30.6833C92.3964 31.1068 92.2424 31.6073 92.2424 32.1848C92.2424 32.9932 92.5504 33.6862 93.2049 34.2252C93.8593 34.7642 94.6678 34.9952 95.7073 34.9952C96.5927 34.9952 97.4782 34.8412 98.3252 34.5717C99.2106 34.3407 100.058 33.9172 100.943 33.4167Z" fill="#000960"/>
<path d="M120.501 39.23C120.039 39.461 119.5 39.615 118.922 39.769C118.345 39.923 117.729 39.9615 117.074 39.9615C116.189 39.9615 115.342 39.846 114.533 39.615C113.725 39.384 112.993 38.999 112.416 38.4985C111.8 37.9596 111.338 37.3051 110.953 36.4581C110.607 35.6111 110.414 34.6102 110.414 33.4167V5.08179H116.497V32.3773C116.497 33.3782 116.689 34.0327 117.113 34.4177C117.498 34.8027 117.998 34.9567 118.537 34.9567C119.23 34.9567 119.885 34.7642 120.501 34.3407V39.23Z" fill="#000960"/>
<path d="M147.026 27.3725C147.026 27.7574 146.988 28.1424 146.949 28.5659C146.911 28.9894 146.872 29.4129 146.795 29.8364H127.738C127.969 30.5293 128.277 31.1838 128.662 31.7998C129.047 32.4158 129.548 32.9548 130.125 33.4167C130.703 33.8787 131.357 34.2252 132.089 34.4947C132.82 34.7642 133.629 34.8797 134.514 34.8797C135.592 34.8797 136.67 34.6872 137.748 34.3407C138.826 33.9942 139.712 33.4552 140.443 32.8393L144.216 36.6121C142.56 37.8441 140.943 38.7295 139.365 39.23C137.787 39.7305 136.093 40 134.36 40C132.589 40 130.895 39.6535 129.355 38.999C127.815 38.3445 126.468 37.4591 125.313 36.3041C124.158 35.1877 123.273 33.8402 122.618 32.3388C121.964 30.7988 121.617 29.1819 121.617 27.4495C121.617 25.717 121.964 24.1001 122.618 22.5601C123.273 21.0202 124.197 19.7112 125.352 18.5948C126.507 17.4783 127.854 16.5544 129.394 15.8999C130.934 15.2454 132.589 14.8989 134.36 14.8989C136.054 14.8989 137.633 15.2069 139.173 15.8229C140.712 16.4389 142.06 17.2858 143.253 18.4023C144.447 19.5188 145.371 20.8277 146.064 22.3291C146.68 23.8691 147.026 25.5245 147.026 27.3725ZM140.789 25.0625C140.327 23.5611 139.481 22.3291 138.287 21.4052C137.094 20.4812 135.746 20.0192 134.206 20.0192C132.705 20.0192 131.396 20.4812 130.202 21.4052C129.009 22.3291 128.2 23.5611 127.738 25.0625H140.789Z" fill="#000960"/>
<path d="M30.568 18.1713V31.4918L22.4064 24.9855L14.5911 31.2993V14.3599L8.54688 19.1722V39.1915H14.6296L22.4064 32.7237L30.491 39.1915H36.5353V15.0914" fill="#000960"/>
</svg>
